<svg width="512" height="512" viewBox="0 0 512 512" fill="none" xmlns="http://www.w3.org/2000/svg" role="img" aria-label="PartnerAI logo">
  <defs>
    <linearGradient id="g" x1="128" y1="112" x2="384" y2="400" gradientUnits="userSpaceOnUse">
      <stop offset="0" stop-color="#8B5CF6"/>
      <stop offset="0.52" stop-color="#7C6CF4"/>
      <stop offset="1" stop-color="#4F8EF7"/>
    </linearGradient>
  </defs>
  <rect width="512" height="512" rx="112" fill="white"/>
  <path d="M184 384V168C184 132.235 212.235 104 248 104H272C331.647 104 380 152.353 380 212C380 271.647 331.647 320 272 320H224" stroke="url(#g)" stroke-width="42" stroke-linecap="round" stroke-linejoin="round"/>
  <path d="M220 320C220 285.817 247.817 258 282 258H302C341.212 258 373 289.788 373 329C373 368.212 341.212 400 302 400H250" stroke="url(#g)" stroke-width="42" stroke-linecap="round" stroke-linejoin="round"/>
  <circle cx="247" cy="240" r="18" fill="#6F72F5"/>
  <circle cx="310" cy="240" r="18" fill="#5F86F6"/>
</svg>